<svg xmlns="http://www.w3.org/2000/svg" viewBox="0 0 1600 1000">
  <rect width="1600" height="420" fill="#9FDCF7"/>
  <rect y="420" width="1600" height="580" fill="#74C655"/>
  <rect x="600" y="660" width="400" height="200" fill="#fff" stroke="#2B2A33" stroke-width="6"/>
  <g stroke="#2B2A33" stroke-width="6" stroke-linejoin="round">
    <path d="M690 380 H 910 Q 910 560 800 580 Q 690 560 690 380 Z" fill="#F5B72E"/>
    <path d="M690 420 Q 620 420 640 480 Q 660 520 700 510 M910 420 Q 980 420 960 480 Q 940 520 900 510" fill="none" stroke-width="16" stroke="#F5B72E"/>
    <rect x="760" y="580" width="80" height="50" fill="#F5B72E"/>
    <rect x="720" y="620" width="160" height="40" rx="8" fill="#F5B72E"/>
  </g>
  <g id="p7-plaque" data-reveal="">
    <rect x="705" y="440" width="190" height="80" rx="14" fill="#F7E6CC" stroke="#2B2A33" stroke-width="5"/>
    <text id="p7-name" class="sb-name" data-form="plain" data-anim="write" data-wrap="2" data-max-width="170" x="800" y="494" text-anchor="middle" font-family="Fredoka, Andika, sans-serif" font-weight="700" font-size="44" fill="#8A5530">NAME</text>
  </g>
  <use href="#d-star" class="sb-print-only" transform="translate(800 480)"/>
  <g id="p7-shine" class="sb-digital"><use href="#d-star" class="sb-twinkle" transform="translate(640 380)"/><use href="#d-star" class="sb-twinkle" transform="translate(960 360) scale(1.2)"/></g>
  <g id="p7-cloth" stroke="#2B2A33" stroke-width="6" stroke-linejoin="round"><path d="M620 660 Q 600 460 700 380 Q 800 330 900 380 Q 1000 460 980 660 Z" fill="#E4483A"/></g>
  <g transform="translate(330 900)"><use href="#d-otter" transform="scale(1.2)"/></g>
</svg>
