<svg xmlns="http://www.w3.org/2000/svg" viewBox="0 0 1600 1000" width="1600" height="1000" stroke-linejoin="round" stroke-linecap="round">
<title>Uh-oh! Frog's mixer is stuck: turn the drum to pour the new path</title>
<rect width="1600" height="420" fill="url(#d2-grad-sky)"/><g class="sb-float"><g transform="translate(250 118) scale(0.55)"><g fill="#D2ECF8" stroke="#D2ECF8" stroke-width="10"><circle cx="-90" cy="10" r="46"/><circle cx="-40" cy="-22" r="58"/><circle cx="28" cy="-30" r="66"/><circle cx="88" cy="4" r="48"/><circle cx="0" cy="16" r="56"/><rect x="-128" y="0" width="256" height="58" rx="29"/></g><g fill="#FFFFFF"><circle cx="-90" cy="10" r="46"/><circle cx="-40" cy="-22" r="58"/><circle cx="28" cy="-30" r="66"/><circle cx="88" cy="4" r="48"/><circle cx="0" cy="16" r="56"/><rect x="-128" y="0" width="256" height="58" rx="29"/></g><path d="M -104 44 H 96" stroke="#E6F5FC" stroke-width="10" fill="none"/></g></g><g transform="translate(700 70) scale(0.4)"><g fill="#D2ECF8" stroke="#D2ECF8" stroke-width="10"><circle cx="-90" cy="10" r="46"/><circle cx="-40" cy="-22" r="58"/><circle cx="28" cy="-30" r="66"/><circle cx="88" cy="4" r="48"/><circle cx="0" cy="16" r="56"/><rect x="-128" y="0" width="256" height="58" rx="29"/></g><g fill="#FFFFFF"><circle cx="-90" cy="10" r="46"/><circle cx="-40" cy="-22" r="58"/><circle cx="28" cy="-30" r="66"/><circle cx="88" cy="4" r="48"/><circle cx="0" cy="16" r="56"/><rect x="-128" y="0" width="256" height="58" rx="29"/></g><path d="M -104 44 H 96" stroke="#E6F5FC" stroke-width="10" fill="none"/></g><g transform="translate(1450 120) scale(0.45)"><g fill="#D2ECF8" stroke="#D2ECF8" stroke-width="10"><circle cx="-90" cy="10" r="46"/><circle cx="-40" cy="-22" r="58"/><circle cx="28" cy="-30" r="66"/><circle cx="88" cy="4" r="48"/><circle cx="0" cy="16" r="56"/><rect x="-128" y="0" width="256" height="58" rx="29"/></g><g fill="#FFFFFF"><circle cx="-90" cy="10" r="46"/><circle cx="-40" cy="-22" r="58"/><circle cx="28" cy="-30" r="66"/><circle cx="88" cy="4" r="48"/><circle cx="0" cy="16" r="56"/><rect x="-128" y="0" width="256" height="58" rx="29"/></g><path d="M -104 44 H 96" stroke="#E6F5FC" stroke-width="10" fill="none"/></g><g transform="translate(62 404) scale(0.62)"><rect x="-12" y="-80" width="24" height="84" rx="10" fill="#A8784F" stroke="#6E4A2C" stroke-width="5"/><g fill="#5BAE45" stroke="#3F8A31" stroke-width="5"><circle cx="-42" cy="-104" r="46"/><circle cx="40" cy="-100" r="44"/><circle cx="0" cy="-150" r="58"/></g><g fill="#5BAE45"><circle cx="-42" cy="-104" r="41"/><circle cx="40" cy="-100" r="39"/><circle cx="0" cy="-150" r="53"/><rect x="-60" y="-120" width="110" height="40" rx="20"/></g><path d="M -30 -168 Q -14 -186 8 -186" fill="none" stroke="#86D166" stroke-width="10"/></g><g transform="translate(170 400) scale(0.48)"><rect x="-12" y="-80" width="24" height="84" rx="10" fill="#A8784F" stroke="#6E4A2C" stroke-width="5"/><g fill="#67B84F" stroke="#3F8A31" stroke-width="5"><circle cx="-42" cy="-104" r="46"/><circle cx="40" cy="-100" r="44"/><circle cx="0" cy="-150" r="58"/></g><g fill="#67B84F"><circle cx="-42" cy="-104" r="41"/><circle cx="40" cy="-100" r="39"/><circle cx="0" cy="-150" r="53"/><rect x="-60" y="-120" width="110" height="40" rx="20"/></g><path d="M -30 -168 Q -14 -186 8 -186" fill="none" stroke="#86D166" stroke-width="10"/></g><g transform="translate(420 406) scale(0.58)"><rect x="-12" y="-80" width="24" height="84" rx="10" fill="#A8784F" stroke="#6E4A2C" stroke-width="5"/><g fill="#67B84F" stroke="#3F8A31" stroke-width="5"><circle cx="-42" cy="-104" r="46"/><circle cx="40" cy="-100" r="44"/><circle cx="0" cy="-150" r="58"/></g><g fill="#67B84F"><circle cx="-42" cy="-104" r="41"/><circle cx="40" cy="-100" r="39"/><circle cx="0" cy="-150" r="53"/><rect x="-60" y="-120" width="110" height="40" rx="20"/></g><path d="M -30 -168 Q -14 -186 8 -186" fill="none" stroke="#86D166" stroke-width="10"/></g><g transform="translate(560 402) scale(0.5)"><rect x="-12" y="-80" width="24" height="84" rx="10" fill="#A8784F" stroke="#6E4A2C" stroke-width="5"/><g fill="#5BAE45" stroke="#3F8A31" stroke-width="5"><circle cx="-42" cy="-104" r="46"/><circle cx="40" cy="-100" r="44"/><circle cx="0" cy="-150" r="58"/></g><g fill="#5BAE45"><circle cx="-42" cy="-104" r="41"/><circle cx="40" cy="-100" r="39"/><circle cx="0" cy="-150" r="53"/><rect x="-60" y="-120" width="110" height="40" rx="20"/></g><path d="M -30 -168 Q -14 -186 8 -186" fill="none" stroke="#86D166" stroke-width="10"/></g><g transform="translate(1280 402) scale(0.5)"><rect x="-12" y="-80" width="24" height="84" rx="10" fill="#A8784F" stroke="#6E4A2C" stroke-width="5"/><g fill="#67B84F" stroke="#3F8A31" stroke-width="5"><circle cx="-42" cy="-104" r="46"/><circle cx="40" cy="-100" r="44"/><circle cx="0" cy="-150" r="58"/></g><g fill="#67B84F"><circle cx="-42" cy="-104" r="41"/><circle cx="40" cy="-100" r="39"/><circle cx="0" cy="-150" r="53"/><rect x="-60" y="-120" width="110" height="40" rx="20"/></g><path d="M -30 -168 Q -14 -186 8 -186" fill="none" stroke="#86D166" stroke-width="10"/></g><g transform="translate(1560 406) scale(0.62)"><rect x="-12" y="-80" width="24" height="84" rx="10" fill="#A8784F" stroke="#6E4A2C" stroke-width="5"/><g fill="#5BAE45" stroke="#3F8A31" stroke-width="5"><circle cx="-42" cy="-104" r="46"/><circle cx="40" cy="-100" r="44"/><circle cx="0" cy="-150" r="58"/></g><g fill="#5BAE45"><circle cx="-42" cy="-104" r="41"/><circle cx="40" cy="-100" r="39"/><circle cx="0" cy="-150" r="53"/><rect x="-60" y="-120" width="110" height="40" rx="20"/></g><path d="M -30 -168 Q -14 -186 8 -186" fill="none" stroke="#86D166" stroke-width="10"/></g><g fill="#5BAE45" stroke="#3F8A31" stroke-width="5"><circle cx="-20" cy="392" r="30"/><circle cx="20.5" cy="392" r="30"/><circle cx="61" cy="392" r="30"/><circle cx="101.5" cy="392" r="30"/><circle cx="142" cy="392" r="30"/><circle cx="182.5" cy="392" r="30"/><circle cx="223" cy="392" r="30"/><circle cx="263.5" cy="392" r="30"/><circle cx="304" cy="392" r="30"/><circle cx="344.5" cy="392" r="30"/><circle cx="385" cy="392" r="30"/><circle cx="425.5" cy="392" r="30"/><circle cx="466" cy="392" r="30"/><circle cx="506.5" cy="392" r="30"/><circle cx="547" cy="392" r="30"/><circle cx="587.5" cy="392" r="30"/><circle cx="628" cy="392" r="30"/><circle cx="668.5" cy="392" r="30"/><circle cx="709" cy="392" r="30"/><circle cx="749.5" cy="392" r="30"/><circle cx="790" cy="392" r="30"/><circle cx="830.5" cy="392" r="30"/><circle cx="871" cy="392" r="30"/><circle cx="911.5" cy="392" r="30"/><circle cx="952" cy="392" r="30"/><circle cx="992.5" cy="392" r="30"/><circle cx="1033" cy="392" r="30"/><circle cx="1073.5" cy="392" r="30"/><circle cx="1114" cy="392" r="30"/><circle cx="1154.5" cy="392" r="30"/><circle cx="1195" cy="392" r="30"/><circle cx="1235.5" cy="392" r="30"/><circle cx="1276" cy="392" r="30"/><circle cx="1316.5" cy="392" r="30"/><circle cx="1357" cy="392" r="30"/><circle cx="1397.5" cy="392" r="30"/><circle cx="1438" cy="392" r="30"/><circle cx="1478.5" cy="392" r="30"/><circle cx="1519" cy="392" r="30"/><circle cx="1559.5" cy="392" r="30"/><circle cx="1600" cy="392" r="30"/><circle cx="1640.5" cy="392" r="30"/></g><rect x="-50" y="392" width="1700" height="40" fill="#5BAE45"/><rect x="0" y="400" width="1600" height="600" fill="#74C655"/><path d="M 0 400 H 1600 V 438 Q 1200 452 800 440 Q 400 428 0 446 Z" fill="#86D166"/><g fill="none" stroke="#5FAF45" stroke-width="7"><path transform="translate(96 620)" d="M -16 0 Q -14 -18 -22 -30 M 0 0 Q 0 -24 -4 -40 M 16 0 Q 16 -18 24 -30"/><path transform="translate(560 580) scale(0.8)" d="M -16 0 Q -14 -18 -22 -30 M 0 0 Q 0 -24 -4 -40 M 16 0 Q 16 -18 24 -30"/><path transform="translate(700 640) scale(0.9)" d="M -16 0 Q -14 -18 -22 -30 M 0 0 Q 0 -24 -4 -40 M 16 0 Q 16 -18 24 -30"/><path transform="translate(1040 960)" d="M -16 0 Q -14 -18 -22 -30 M 0 0 Q 0 -24 -4 -40 M 16 0 Q 16 -18 24 -30"/><path transform="translate(1560 900) scale(0.9)" d="M -16 0 Q -14 -18 -22 -30 M 0 0 Q 0 -24 -4 -40 M 16 0 Q 16 -18 24 -30"/><path transform="translate(40 990) scale(0.9)" d="M -16 0 Q -14 -18 -22 -30 M 0 0 Q 0 -24 -4 -40 M 16 0 Q 16 -18 24 -30"/></g><use href="#d2-sandbag" transform="translate(92 506) scale(0.55)"/><use href="#d2-wheelbarrow" transform="translate(492 492) scale(0.5)"/><path d="M 404 736 Q 604 724 800 688 L 812 836 Q 630 890 426 910 Z" fill="#6E5243" stroke="#4B372C" stroke-width="5"/><path d="M 404 736 Q 604 724 800 688 L 812 836 Q 630 890 426 910 Z" fill="url(#d2-pat-mud)"/><g id="dg-p5-newpath" data-reveal=""><path d="M 404 736 Q 604 724 800 688 L 812 836 Q 630 890 426 910 Z" fill="#B8BEC6" stroke="#8C939C" stroke-width="5"/><path d="M 452 770 Q 600 756 760 716" fill="none" stroke="#D7DCE2" stroke-width="12" opacity=".9"/><use href="#d2-concrete-shine" transform="translate(520 862) rotate(-6) scale(0.75)"/><use href="#d2-concrete-shine" transform="translate(716 800) rotate(-16) scale(0.5)"/></g><use href="#d2-board" transform="translate(503.8 716.5) rotate(-5.2) scale(0.84)"/><use href="#d2-board" transform="translate(701.8 692.5) rotate(-8.7) scale(0.84)"/><path d="M 30 752 L 404 736 L 426 910 L 12 928 Z" fill="#B8BEC6" stroke="#8C939C" stroke-width="5"/><path d="M 56 772 L 382 758" fill="none" stroke="#D7DCE2" stroke-width="10" opacity=".9"/><use href="#d2-concrete-shine" transform="translate(340 862) rotate(-3) scale(0.6)"/><use href="#d2-pawprints" transform="translate(62 888) rotate(-3) scale(0.5)"/><use href="#d2-board" transform="translate(123.5 736) rotate(-2.4) scale(0.84)"/><use href="#d2-board" transform="translate(310.5 728) rotate(-2.4) scale(0.84)"/><use href="#d2-star" class="sb-print-only" opacity=".25" transform="translate(244 814) scale(0.5)"/><g id="dg-p5-name" data-reveal=""><text class="sb-name" data-form="plain" data-max-width="250" data-wrap="2" data-anim="write" x="244" y="834" text-anchor="middle" font-size="64" font-family="Fredoka, Andika, sans-serif" font-weight="700" fill="#7A828C" stroke="#E4E8EC" stroke-width="6" paint-order="stroke" transform="rotate(-2.5 244 814)">NAME</text></g><use href="#d2-board" transform="translate(115.5 923.5) rotate(-2.5) scale(0.94)"/><use href="#d2-board" transform="translate(322.5 914.5) rotate(-2.5) scale(0.94)"/><use href="#d2-board" transform="translate(526.6 897.9) rotate(-8.2) scale(0.9)"/><use href="#d2-board" transform="translate(719.6 860.9) rotate(-13.6) scale(0.9)"/><use href="#d2-pebble" transform="translate(716 838)"/><use href="#d2-planks" transform="translate(1330 968) scale(0.78)"/><use href="#d2-cone" transform="translate(1080 930) scale(0.62)"/><use href="#d2-cone" transform="translate(1190 962) scale(0.7)"/><use href="#d2-spade" transform="translate(1500 972) rotate(8) scale(0.6)"/><g id="dg-p5-tiffin"><use href="#d2-shadow" transform="translate(264 754) scale(0.62 0.5)"/><use href="#d2-tiffin-stick" transform="translate(264 752) scale(0.55)"/></g><g transform="translate(1150 850)"><use href="#d2-shadow" transform="translate(0 4) scale(3.4 0.9)"/><use href="#d2-mixer-chassis"/><g transform="translate(-150 -330)"><g id="dg-p5-drum"><use href="#d2-mixer-disc"/></g></g><use href="#d2-mixer"/><g transform="translate(272 -262) scale(.62)"><g id="dg-p5-frog"><g id="dg-p5-frog-uhoh"><use href="#d2-frog-cab-uhoh"/></g><g id="dg-p5-frog-grin"><use href="#d2-frog-cab-grin"/></g></g></g><use href="#d2-mixer-door"/></g><g class="sb-digital" transform="translate(560 757) scale(0.56)"><g id="dg-p5-pour"><use href="#d2-concrete-pour"/></g></g><g class="sb-digital" transform="translate(562 842)"><g id="dg-p5-splash"><use href="#d2-concrete-splash" transform="translate(0 0) scale(0.7)"/></g></g><g id="dg-p5-arrows" class="sb-digital"><g class="sb-pulse"><path d="M 738.5 445 A 272 272 0 0 1 962.1 250.6 M 932.1 281.1 L 972 249.3 L 924.9 229.6" fill="none" stroke="#5FA7D6" stroke-width="30" opacity=".55"/><path d="M 738.5 445 A 272 272 0 0 1 962.1 250.6" fill="none" stroke="#FFFFFF" stroke-width="17"/><path d="M 932.1 281.1 L 972 249.3 L 924.9 229.6" fill="none" stroke="#FFFFFF" stroke-width="17"/><path d="M 1093 264.4 A 272 272 0 0 1 1263.9 454.2 M 1230.5 427.5 L 1266.3 463.9 L 1280.9 414.9" fill="none" stroke="#5FA7D6" stroke-width="30" opacity=".55"/><path d="M 1093 264.4 A 272 272 0 0 1 1263.9 454.2" fill="none" stroke="#FFFFFF" stroke-width="17"/><path d="M 1230.5 427.5 L 1266.3 463.9 L 1280.9 414.9" fill="none" stroke="#FFFFFF" stroke-width="17"/></g></g><g id="dg-p5-sparkles"><g class="sb-digital sb-twinkle"><use href="#d2-sparkle" transform="translate(84 790) scale(0.55)"/></g><g class="sb-digital sb-twinkle"><use href="#d2-sparkle" transform="translate(398 800) scale(0.5)"/></g><g class="sb-digital sb-twinkle"><use href="#d2-sparkle" transform="translate(122 770) scale(0.4)"/></g><g class="sb-digital sb-twinkle"><use href="#d2-sparkle" transform="translate(330 850) scale(0.4)"/></g><g class="sb-digital sb-twinkle"><use href="#d2-sparkle" transform="translate(640 790) scale(0.5)"/></g></g>
</svg>
