<svg xmlns="http://www.w3.org/2000/svg" viewBox="0 0 1600 1000" width="1600" height="1000" stroke-linejoin="round" stroke-linecap="round">
<title>Opening day: lift the cloth off the park sign</title>
<rect width="1600" height="700" fill="url(#d2-grad-sky)"/><g class="sb-float"><g transform="translate(1260 250) scale(0.42)"><g fill="#D2ECF8" stroke="#D2ECF8" stroke-width="10"><circle cx="-90" cy="10" r="46"/><circle cx="-40" cy="-22" r="58"/><circle cx="28" cy="-30" r="66"/><circle cx="88" cy="4" r="48"/><circle cx="0" cy="16" r="56"/><rect x="-128" y="0" width="256" height="58" rx="29"/></g><g fill="#FFFFFF"><circle cx="-90" cy="10" r="46"/><circle cx="-40" cy="-22" r="58"/><circle cx="28" cy="-30" r="66"/><circle cx="88" cy="4" r="48"/><circle cx="0" cy="16" r="56"/><rect x="-128" y="0" width="256" height="58" rx="29"/></g><path d="M -104 44 H 96" stroke="#E6F5FC" stroke-width="10" fill="none"/></g></g><g transform="translate(260 300) scale(0.38)"><g fill="#D2ECF8" stroke="#D2ECF8" stroke-width="10"><circle cx="-90" cy="10" r="46"/><circle cx="-40" cy="-22" r="58"/><circle cx="28" cy="-30" r="66"/><circle cx="88" cy="4" r="48"/><circle cx="0" cy="16" r="56"/><rect x="-128" y="0" width="256" height="58" rx="29"/></g><g fill="#FFFFFF"><circle cx="-90" cy="10" r="46"/><circle cx="-40" cy="-22" r="58"/><circle cx="28" cy="-30" r="66"/><circle cx="88" cy="4" r="48"/><circle cx="0" cy="16" r="56"/><rect x="-128" y="0" width="256" height="58" rx="29"/></g><path d="M -104 44 H 96" stroke="#E6F5FC" stroke-width="10" fill="none"/></g><g transform="translate(90 668) scale(0.5)"><rect x="-12" y="-80" width="24" height="84" rx="10" fill="#A8784F" stroke="#6E4A2C" stroke-width="5"/><g fill="#5BAE45" stroke="#3F8A31" stroke-width="5"><circle cx="-42" cy="-104" r="46"/><circle cx="40" cy="-100" r="44"/><circle cx="0" cy="-150" r="58"/></g><g fill="#5BAE45"><circle cx="-42" cy="-104" r="41"/><circle cx="40" cy="-100" r="39"/><circle cx="0" cy="-150" r="53"/><rect x="-60" y="-120" width="110" height="40" rx="20"/></g><path d="M -30 -168 Q -14 -186 8 -186" fill="none" stroke="#86D166" stroke-width="10"/></g><g transform="translate(1100 664) scale(0.55)"><rect x="-12" y="-80" width="24" height="84" rx="10" fill="#A8784F" stroke="#6E4A2C" stroke-width="5"/><g fill="#67B84F" stroke="#3F8A31" stroke-width="5"><circle cx="-42" cy="-104" r="46"/><circle cx="40" cy="-100" r="44"/><circle cx="0" cy="-150" r="58"/></g><g fill="#67B84F"><circle cx="-42" cy="-104" r="41"/><circle cx="40" cy="-100" r="39"/><circle cx="0" cy="-150" r="53"/><rect x="-60" y="-120" width="110" height="40" rx="20"/></g><path d="M -30 -168 Q -14 -186 8 -186" fill="none" stroke="#86D166" stroke-width="10"/></g><g transform="translate(420 664) scale(0.46)"><rect x="-12" y="-80" width="24" height="84" rx="10" fill="#A8784F" stroke="#6E4A2C" stroke-width="5"/><g fill="#67B84F" stroke="#3F8A31" stroke-width="5"><circle cx="-42" cy="-104" r="46"/><circle cx="40" cy="-100" r="44"/><circle cx="0" cy="-150" r="58"/></g><g fill="#67B84F"><circle cx="-42" cy="-104" r="41"/><circle cx="40" cy="-100" r="39"/><circle cx="0" cy="-150" r="53"/><rect x="-60" y="-120" width="110" height="40" rx="20"/></g><path d="M -30 -168 Q -14 -186 8 -186" fill="none" stroke="#86D166" stroke-width="10"/></g><g transform="translate(1540 668) scale(0.5)"><rect x="-12" y="-80" width="24" height="84" rx="10" fill="#A8784F" stroke="#6E4A2C" stroke-width="5"/><g fill="#67B84F" stroke="#3F8A31" stroke-width="5"><circle cx="-42" cy="-104" r="46"/><circle cx="40" cy="-100" r="44"/><circle cx="0" cy="-150" r="58"/></g><g fill="#67B84F"><circle cx="-42" cy="-104" r="41"/><circle cx="40" cy="-100" r="39"/><circle cx="0" cy="-150" r="53"/><rect x="-60" y="-120" width="110" height="40" rx="20"/></g><path d="M -30 -168 Q -14 -186 8 -186" fill="none" stroke="#86D166" stroke-width="10"/></g><path d="M 1150 668 Q 1380 566 1640 596 V 700 H 1150 Z" fill="#86D166" stroke="#6CBB4F" stroke-width="5"/><g fill="#5BAE45" stroke="#3F8A31" stroke-width="5"><circle cx="-20" cy="660" r="26"/><circle cx="15.1" cy="660" r="26"/><circle cx="50.2" cy="660" r="26"/><circle cx="85.3" cy="660" r="26"/><circle cx="120.4" cy="660" r="26"/><circle cx="155.5" cy="660" r="26"/><circle cx="190.6" cy="660" r="26"/><circle cx="225.7" cy="660" r="26"/><circle cx="260.8" cy="660" r="26"/><circle cx="295.9" cy="660" r="26"/><circle cx="331" cy="660" r="26"/><circle cx="366.1" cy="660" r="26"/><circle cx="401.2" cy="660" r="26"/><circle cx="436.3" cy="660" r="26"/><circle cx="471.4" cy="660" r="26"/><circle cx="506.5" cy="660" r="26"/><circle cx="541.6" cy="660" r="26"/><circle cx="576.7" cy="660" r="26"/><circle cx="611.8" cy="660" r="26"/><circle cx="646.9" cy="660" r="26"/><circle cx="682" cy="660" r="26"/><circle cx="717.1" cy="660" r="26"/><circle cx="752.2" cy="660" r="26"/><circle cx="787.3" cy="660" r="26"/><circle cx="822.4" cy="660" r="26"/><circle cx="857.5" cy="660" r="26"/><circle cx="892.6" cy="660" r="26"/><circle cx="927.7" cy="660" r="26"/><circle cx="962.8" cy="660" r="26"/><circle cx="997.9" cy="660" r="26"/><circle cx="1033" cy="660" r="26"/><circle cx="1068.1" cy="660" r="26"/><circle cx="1103.2" cy="660" r="26"/><circle cx="1138.3" cy="660" r="26"/><circle cx="1173.4" cy="660" r="26"/><circle cx="1208.5" cy="660" r="26"/><circle cx="1243.6" cy="660" r="26"/><circle cx="1278.7" cy="660" r="26"/><circle cx="1313.8" cy="660" r="26"/><circle cx="1348.9" cy="660" r="26"/><circle cx="1384" cy="660" r="26"/><circle cx="1419.1" cy="660" r="26"/><circle cx="1454.2" cy="660" r="26"/><circle cx="1489.3" cy="660" r="26"/><circle cx="1524.4" cy="660" r="26"/><circle cx="1559.5" cy="660" r="26"/><circle cx="1594.6" cy="660" r="26"/><circle cx="1629.7" cy="660" r="26"/></g><rect x="-46" y="660" width="1692" height="36" fill="#5BAE45"/><rect x="0" y="666" width="1600" height="334" fill="#74C655"/><path d="M 0 666 H 1600 V 698 Q 1200 708 800 698 Q 400 688 0 704 Z" fill="#86D166"/><use href="#d2-crane-assembled" transform="translate(1556 604) scale(0.18)"/><use href="#d2-garland" transform="translate(1440 494) rotate(10) scale(0.36)"/><use href="#d2-digger-small" transform="translate(1418 614) scale(0.26)"/><use href="#d2-garland" transform="translate(1384 548) rotate(-6) scale(0.3)"/><path d="M 700 1000 Q 760 860 820 780 Q 860 730 900 716 L 952 716 Q 900 740 880 790 Q 850 880 900 1000 Z" fill="#B8BEC6" stroke="#8C939C" stroke-width="5"/><use href="#d2-swing" transform="translate(640 724) scale(0.34)"/><use href="#d2-slide" transform="translate(964.2 564.8) scale(0.44)"/><use href="#d2-slide-tower" transform="translate(1010 732) scale(0.44)"/><use href="#d2-sandpit" transform="translate(684 772) scale(0.34)"/><g id="dg-p7-fish"><use href="#d2-spring-fish" transform="translate(936 786) scale(0.34)"/></g><use href="#d2-roundabout" transform="translate(560 780) scale(0.26)"/><path d="M 520 1010 Q 560 930 700 920 Q 1000 904 1300 930 Q 1480 944 1620 918 V 1010 Z" fill="#B8BEC6" stroke="#8C939C" stroke-width="5"/><path d="M 640 950 Q 900 932 1180 946 M 1300 962 Q 1440 968 1560 950" fill="none" stroke="#D7DCE2" stroke-width="9" opacity=".9"/><g transform="translate(800 928) scale(0.92)"><use href="#d2-park-gate"/><g transform="translate(0 -640)"><use href="#d2-park-sign"/><use href="#d2-star" class="sb-print-only" opacity=".25" transform="translate(0 -36) scale(0.55)"/><text class="sb-name" data-form="poss" data-max-width="400" data-wrap="2" data-anim="write" x="0" y="-14" text-anchor="middle" font-size="64" font-family="Fredoka, Andika, sans-serif" font-weight="700" fill="#E4483A">NAME</text><text x="0" y="90" text-anchor="middle" font-size="60" font-family="Fredoka, Andika, sans-serif" font-weight="700" fill="#8A5530">Park</text></g><g id="dg-p7-ribbon" transform="translate(0 -260)"><use href="#d2-ribbon"/></g><g id="dg-p7-ribbon-l" transform="translate(-300 -260)"><use href="#d2-ribbon-left"/></g><g id="dg-p7-ribbon-r" transform="translate(300 -260)"><use href="#d2-ribbon-right"/></g></g><g id="dg-p7-rosette" transform="translate(836 930) rotate(18) scale(0.62)"><use href="#d2-rosette"/></g><use href="#d2-pebble" transform="translate(468 936)"/><g transform="translate(800 339.2) scale(0.92)"><g id="dg-p7-cloth"><use href="#d2-park-cloth"/></g></g><path d="M 10 26 Q 800 110 1590 26" fill="none" stroke="#8A5530" stroke-width="6"/><g id="dg-p7-bunting"><use href="#d2-flag-red" transform="translate(89 32) scale(0.82)"/><use href="#d2-flag-yellow" transform="translate(247 45.4) scale(0.82)"/><use href="#d2-flag-orange" transform="translate(405 55.5) scale(0.82)"/><use href="#d2-flag-white" transform="translate(563 62.2) scale(0.82)"/><use href="#d2-flag-red" transform="translate(721 65.6) scale(0.82)"/><use href="#d2-flag-yellow" transform="translate(879 65.6) scale(0.82)"/><use href="#d2-flag-orange" transform="translate(1037 62.2) scale(0.82)"/><use href="#d2-flag-white" transform="translate(1195 55.5) scale(0.82)"/><use href="#d2-flag-red" transform="translate(1353 45.4) scale(0.82)"/><use href="#d2-flag-yellow" transform="translate(1511 32) scale(0.82)"/></g><g id="dg-p7-letters-wrap" data-reveal=""><g class="sb-letters" data-anim="write" data-overflow="#dg-p7-name-banner"><text class="sb-letter" x="89" y="79.5" text-anchor="middle" font-size="41" font-family="Fredoka, Andika, sans-serif" font-weight="700" fill="#FFFFFF">A</text><text class="sb-letter" x="247" y="93" text-anchor="middle" font-size="41" font-family="Fredoka, Andika, sans-serif" font-weight="700" fill="#E4483A">A</text><text class="sb-letter" x="405" y="103.1" text-anchor="middle" font-size="41" font-family="Fredoka, Andika, sans-serif" font-weight="700" fill="#FFFFFF">A</text><text class="sb-letter" x="563" y="109.8" text-anchor="middle" font-size="41" font-family="Fredoka, Andika, sans-serif" font-weight="700" fill="#E4483A">A</text><text class="sb-letter" x="721" y="113.1" text-anchor="middle" font-size="41" font-family="Fredoka, Andika, sans-serif" font-weight="700" fill="#FFFFFF">A</text><text class="sb-letter" x="879" y="113.1" text-anchor="middle" font-size="41" font-family="Fredoka, Andika, sans-serif" font-weight="700" fill="#E4483A">A</text><text class="sb-letter" x="1037" y="109.8" text-anchor="middle" font-size="41" font-family="Fredoka, Andika, sans-serif" font-weight="700" fill="#FFFFFF">A</text><text class="sb-letter" x="1195" y="103.1" text-anchor="middle" font-size="41" font-family="Fredoka, Andika, sans-serif" font-weight="700" fill="#E4483A">A</text><text class="sb-letter" x="1353" y="93" text-anchor="middle" font-size="41" font-family="Fredoka, Andika, sans-serif" font-weight="700" fill="#FFFFFF">A</text><text class="sb-letter" x="1511" y="79.5" text-anchor="middle" font-size="41" font-family="Fredoka, Andika, sans-serif" font-weight="700" fill="#E4483A">A</text></g><g id="dg-p7-name-banner" display="none"><path d="M 590 96 L 590 60 M 1010 96 L 1010 60" stroke="#8A5530" stroke-width="6"/><rect x="540" y="92" width="520" height="92" rx="22" fill="#FFFFFF" stroke="#AFBBC8" stroke-width="6"/><rect x="552" y="104" width="496" height="68" rx="14" fill="none" stroke="#E4483A" stroke-width="6"/><text id="dg-p7-name-long" class="sb-name" data-form="plain" data-max-width="460" data-wrap="2" data-anim="write" x="800" y="160" text-anchor="middle" font-size="54" font-family="Fredoka, Andika, sans-serif" font-weight="700" fill="#E4483A">NAME</text></g></g><g id="dg-p7-tiffin"><use href="#d2-shadow" transform="translate(300 884) scale(0.8 0.6)"/><g class="sb-bob"><use href="#d2-tiffin-jump" transform="translate(300 880) scale(0.6)"/></g></g><g id="dg-p7-goose"><use href="#d2-shadow" transform="translate(1262 892) scale(0.6 0.5)"/><use href="#d2-goose-clap" transform="translate(1262 890) scale(0.55)"/></g><g id="dg-p7-frog"><use href="#d2-shadow" transform="translate(1462 912) scale(0.55 0.5)"/><use href="#d2-frog-clap" transform="translate(1462 910) scale(0.6)"/></g><g id="dg-p7-crowd"><use href="#d2-friend-duck" transform="translate(1176 986) scale(0.42)"/><use href="#d2-friend-rabbit" transform="translate(1330 992) scale(0.44)"/><use href="#d2-friend-mouse" transform="translate(1500 990) scale(0.42)"/></g><g class="sb-digital sb-float"><use href="#d2-confetti" transform="translate(300 200) rotate(12) scale(0.6)"/></g><g class="sb-digital sb-float"><use href="#d2-confetti" transform="translate(1300 170) rotate(-20) scale(0.55)"/></g><g id="dg-p7-sparkles"><g class="sb-digital sb-twinkle"><use href="#d2-sparkle" transform="translate(470 300) scale(0.7)"/></g><g class="sb-digital sb-twinkle"><use href="#d2-sparkle" transform="translate(1130 280) scale(0.6)"/></g><g class="sb-digital sb-twinkle"><use href="#d2-sparkle" transform="translate(520 520) scale(0.5)"/></g><g class="sb-digital sb-twinkle"><use href="#d2-sparkle" transform="translate(1080 520) scale(0.55)"/></g><g class="sb-digital sb-twinkle"><use href="#d2-sparkle" transform="translate(800 610) scale(0.5)"/></g></g>
</svg>
